<svg xmlns="http://www.w3.org/2000/svg" viewBox="0 0 180 260" width="180" height="260">
  <defs>
    <symbol id="s-fl" viewBox="-26 -26 52 52">
      <g>
        <ellipse cx="0" cy="-15" rx="8" ry="13"/>
        <ellipse cx="0" cy="-15" rx="8" ry="13" transform="rotate(72)"/>
        <ellipse cx="0" cy="-15" rx="8" ry="13" transform="rotate(144)"/>
        <ellipse cx="0" cy="-15" rx="8" ry="13" transform="rotate(216)"/>
        <ellipse cx="0" cy="-15" rx="8" ry="13" transform="rotate(288)"/>
      </g>
      <circle cx="0" cy="0" r="6" fill="#F3B23E"/>
    </symbol>
    <symbol id="s-daisy" viewBox="-26 -26 52 52">
      <g>
        <ellipse cx="0" cy="-16" rx="4.5" ry="12"/>
        <ellipse cx="0" cy="-16" rx="4.5" ry="12" transform="rotate(45)"/>
        <ellipse cx="0" cy="-16" rx="4.5" ry="12" transform="rotate(90)"/>
        <ellipse cx="0" cy="-16" rx="4.5" ry="12" transform="rotate(135)"/>
        <ellipse cx="0" cy="-16" rx="4.5" ry="12" transform="rotate(180)"/>
        <ellipse cx="0" cy="-16" rx="4.5" ry="12" transform="rotate(225)"/>
        <ellipse cx="0" cy="-16" rx="4.5" ry="12" transform="rotate(270)"/>
        <ellipse cx="0" cy="-16" rx="4.5" ry="12" transform="rotate(315)"/>
      </g>
      <circle cx="0" cy="0" r="6" fill="#F3B23E"/>
    </symbol>
    <symbol id="s-leaf" viewBox="-8 -22 16 44">
      <path d="M0 -20 C9 -12 9 12 0 20 C-9 12 -9 -12 0 -20 Z"/>
    </symbol>
  </defs>

  <!-- stem -->
  <path d="M92 250 C70 200 78 150 74 110 C72 80 86 55 96 30" stroke="#9DBE78" stroke-width="3" fill="none"/>

  <use href="#s-leaf" x="40" y="150" width="26" height="70" fill="#A9C486" transform="rotate(-30 53 185)"/>
  <use href="#s-leaf" x="100" y="120" width="24" height="64" fill="#BBD199" transform="rotate(28 112 152)"/>
  <use href="#s-leaf" x="52" y="90" width="22" height="58" fill="#9DBE78" transform="rotate(-24 63 119)"/>

  <use href="#s-daisy" x="60" y="10" width="60" height="60" fill="#FBF7EF"/>
  <use href="#s-fl" x="30" y="60" width="54" height="54" fill="#F2A7B6"/>
  <use href="#s-fl" x="98" y="70" width="48" height="48" fill="#F5CF6B"/>
  <use href="#s-daisy" x="56" y="110" width="46" height="46" fill="#FBF7EF"/>
  <use href="#s-fl" x="30" y="150" width="40" height="40" fill="#C9AEDD"/>

  <circle cx="120" cy="120" r="3" fill="#F2A7B6"/>
  <circle cx="44" cy="130" r="2.8" fill="#F3B23E"/>
  <circle cx="96" cy="176" r="2.6" fill="#EF8F7E"/>
</svg>
